<svg width="24" height="24" xmlns="http://www.w3.org/2000/svg">

 <g>
  <title>background</title>
  <rect fill="none" id="canvas_background" height="402" width="582" y="-1" x="-1"/>
 </g>
 <g>
  <title>Layer 1</title>
  <path fill="#ffffff" id="svg_1" d="m20,20l0,-10c0,-1.1 -0.9,-2 -2,-2l-12,0c-1.1,0 -2,0.9 -2,2l0,10c0,1.1 0.9,2 2,2l12,0c1.1,0 2,-0.9 2,-2zm-6,-5c0,1.1 -0.9,2 -2,2s-2,-0.9 -2,-2s0.9,-2 2,-2s2,0.9 2,2z"/>
  <path id="svg_2" stroke-width="2" stroke-miterlimit="10" stroke="#ffffff" fill="none" d="m17,12c0,-0.4 0,-4.6 0,-5c0,-2.8 -2.2,-5 -5,-5s-5,2.2 -5,5c0,0.4 0,4.6 0,5"/>
 </g>
</svg>